<svg version="1" xmlns="http://www.w3.org/2000/svg" width="682.667" height="682.667" viewBox="0 0 512.000000 512.000000"><path d="M44.4 1C32.2 2.8 20.8 8.8 13.2 17.5 7.3 24.2 2.3 35 1 43.5.3 48.2 0 118.7.2 260l.3 209.5 2.2 6.6c5.6 16.3 17.5 28.1 33.8 33.2l7 2.2H256c203.4 0 212.8-.1 218.5-1.8 16.9-5.2 29.6-17.6 34.8-34.1l2.2-7.1v-425l-2.2-7.1c-5.1-16-17.1-28.2-33.3-33.7L469.5.5l-210-.1C144 .3 47.2.6 44.4 1zM291 125.5V143h-62v211h-37V143h-60v-35h159v17.5zm90 84.7c0 57.8-.4 106.2-1 111.3-2.8 26.9-14.8 50-33.2 64-12.6 9.5-30.8 16.7-45.6 18-3.7.4-7.7.8-8.9 1.1l-2.3.4v-35h2.8c5 0 15.5-3 22.1-6.3 8.3-4 18.7-14.2 22.3-21.7 6.6-13.8 6.2-6.4 6.5-125.8l.4-108.2H381v102.2z"/></svg>